<svg xmlns="http://www.w3.org/2000/svg" xmlns:xlink="http://www.w3.org/1999/xlink" width="904" height="521" viewBox="0 0 904 521">
  <metadata><?xpacket begin="﻿" id="W5M0MpCehiHzreSzNTczkc9d"?>
<x:xmpmeta xmlns:x="adobe:ns:meta/" x:xmptk="Adobe XMP Core 6.0-c002 79.164352, 2020/01/30-15:50:38        ">
   <rdf:RDF xmlns:rdf="http://www.w3.org/1999/02/22-rdf-syntax-ns#">
      <rdf:Description rdf:about=""
            xmlns:xmp="http://ns.adobe.com/xap/1.0/">
         <xmp:CreatorTool>Adobe Photoshop 21.1 (Macintosh)</xmp:CreatorTool>
      </rdf:Description>
   </rdf:RDF>
</x:xmpmeta>
                                                                                                    
                                                                                                    
                                                                                                    
                                                                                                    
                                                                                                    
                                                                                                    
                                                                                                    
                                                                                                    
                                                                                                    
                                                                                                    
                                                                                                    
                                                                                                    
                                                                                                    
                                                                                                    
                                                                                                    
                                                                                                    
                                                                                                    
                                                                                                    
                                                                                                    
                                                                                                    
                           
<?xpacket end="w"?></metadata>
<defs>
    <style>
      .cls-1, .cls-2, .cls-3 {
        fill-rule: evenodd;
      }

      .cls-1 {
        filter: url(#filter);
      }

      .cls-2 {
        filter: url(#filter-2);
      }

      .cls-3 {
        filter: url(#filter-3);
      }
    </style>
    <filter id="filter" x="0" y="214" width="904" height="307" filterUnits="userSpaceOnUse">
      <feFlood result="flood" flood-color="#fff"/>
      <feComposite result="composite" operator="in" in2="SourceGraphic"/>
      <feBlend result="blend" in2="SourceGraphic"/>
    </filter>
    <filter id="filter-2" x="0" y="129" width="904" height="10" filterUnits="userSpaceOnUse">
      <feFlood result="flood" flood-color="#fff"/>
      <feComposite result="composite" operator="in" in2="SourceGraphic"/>
      <feBlend result="blend" in2="SourceGraphic"/>
    </filter>
    <filter id="filter-3" x="250" y="0" width="404" height="74" filterUnits="userSpaceOnUse">
      <feFlood result="flood" flood-color="#fff"/>
      <feComposite result="composite" operator="in" in2="SourceGraphic"/>
      <feBlend result="blend" in2="SourceGraphic"/>
    </filter>
  </defs>
  <path id="BUZZ" class="cls-1" d="M99.9,515.293c47.516,0,62.948-3.665,86.5-20.358,22.743-15.88,34.927-42.345,34.927-71.253,0-34.609-16.651-58.631-49.547-70.032,22.743-12.622,34.926-35.422,34.926-61.074,0-40.715-28.428-67.181-62.542-74.917-10.559-2.443-26.4-3.664-47.922-3.664H0v301.3H99.9ZM73.5,328.406V281.583H104.37c19.088,0,28.834,6.922,28.834,22.8s-10.153,24.022-29.24,24.022H73.5Zm0,119.3V392.738h39.8c22.742,0,34.52,8.55,34.52,26.058,0,19.543-13.4,28.908-34.927,28.908H73.5Zm324.074-49.673c0,42.344-12.183,55.373-38.175,55.373-27.21,0-38.987-18.322-38.987-55.78V214H243.66v184.85c0,58.224,17.057,86.318,52.389,107.083,17.464,10.179,38.988,15.065,64.167,15.065,45.486,0,79.194-19.137,99.094-51.3,10.153-16.287,15.026-39.9,15.026-71.253V214H397.579V398.031ZM688.762,515.293V447.7H592.917L688.762,276.29V214H499.1v67.588h103.56L499.1,464.805v50.488H688.762Zm215.237,0V447.7H808.154L904,276.29V214H714.341v67.588H817.9L714.341,464.805v50.488H904Z"/>
  <path class="cls-2" d="M0,139V129H904v10H0Z"/>
  <path id="QWAZZOCK_SVG" data-name="QWAZZOCK SVG" class="cls-3" d="M327.293,58.662a13.844,13.844,0,0,1-1.885.095,11.016,11.016,0,0,1-7.258-2.472c4.053-5.8,5.749-12.169,5.749-20.251C323.9,17.02,307.875,0,286.667,0,265.836,0,250,16.83,250,37.651c0,19.395,17.25,35.462,36.856,35.462A35.68,35.68,0,0,0,306.461,67.6c3.111,3.423,9.426,5.514,16.5,5.514a41.14,41.14,0,0,0,4.336-.19V58.662ZM267.909,33.468c2.168-11.028,9.238-17.683,18.758-17.683,11.5,0,19.417,8.842,19.417,19.87a20.45,20.45,0,0,1-2.356,10.363c-7.635-9.412-16.872-14.831-25.921-14.831a24.051,24.051,0,0,0-9.9,2.377v-0.1Zm26.77,22.152a17.615,17.615,0,0,1-8.012,1.711c-6.881,0-13.668-4.563-16.967-11.884a17.851,17.851,0,0,1,6.127-1.141C282.991,44.306,288.269,47.348,294.679,55.62ZM375.53,73.045l34.137-50.256H395.191L375.6,52.535h-0.134V22.789H363.881l-20.065,29.2h-0.134v-29.2H330.956V73.045h12.658L362.6,45.2h0.135V73.045H375.53Zm51.641,0V22.789H414.58l-34.2,50.256h15.284l4.377-7.267h14.409v7.267h12.726ZM414.445,55.591H406.1l8.214-13.922h0.135V55.591Zm48.408,17.454V61.771h-15.89l15.89-28.592V22.789H431.409V34.063h17.17l-17.17,30.561v8.421h31.444Zm34.943,0V61.771h-15.89L497.8,33.18V22.789H466.352V34.063h17.169L466.352,64.624v8.421H497.8ZM528.093,74c14.274,0,25.721-11.545,25.721-26.418,0-14.4-11.783-25.739-26.327-25.739-15.15,0-26.26,11.681-26.26,27.233C501.227,63.945,514.223,74,528.093,74Zm-0.4-11.274c-8.147,0-13.736-6.656-13.736-14.941,0-7.946,5.589-14.669,13.534-14.669,8.013,0,13.6,7,13.6,14.873C541.088,56,535.567,62.722,527.689,62.722Zm81.065-20.849c-0.876-5.161-3.7-9.779-8.417-13.854-4.982-4.279-10.5-6.18-17.372-6.18-14.274,0-25.653,12.021-25.653,25.332,0,7.606,2.289,13.99,7.676,19.287a26.182,26.182,0,0,0,43.766-12.224H595.422c-2.626,5.637-6.935,8.489-11.985,8.489-7.878,0-13.4-6.791-13.4-14.941,0-7.81,5.386-14.669,13.331-14.669,5.185,0,9.9,3.26,12.053,8.761h13.332ZM654,73.045l-17.574-25.2,16.5-25.06H639.588L625.515,45.4h-0.134V22.789H612.655V73.045h12.726V51.313h0.134l13.6,21.732H654Z"/>
</svg>
